<svg id="Layer_1" data-name="Layer 1" xmlns="http://www.w3.org/2000/svg" viewBox="0 0 1577 467"><title>illustrationer</title><rect x="488.35" y="3.26" width="437.54" height="276.03" rx="7" style="fill:#a2c4d1;stroke:#1a434d;stroke-miterlimit:10;stroke-width:6px"/><rect x="505.62" y="19.54" width="403.81" height="240.03" rx="7" style="fill:#a2c4d1;stroke:#1a434d;stroke-miterlimit:10;stroke-width:4px"/><line x1="698.96" y1="279.12" x2="675.92" y2="339.74" style="fill:#a2c4d1;stroke:#1a434d;stroke-miterlimit:10;stroke-width:6px"/><line x1="738.31" y1="339.01" x2="711.74" y2="279.85" style="fill:#a2c4d1;stroke:#1a434d;stroke-miterlimit:10;stroke-width:6px"/><line x1="657.1" y1="339.74" x2="757.13" y2="339.74" style="fill:#a2c4d1;stroke:#1a434d;stroke-miterlimit:10;stroke-width:6px"/><rect x="819.92" y="334.26" width="64.42" height="129" rx="9.36" style="fill:#a2c4d1;stroke:#1a434d;stroke-miterlimit:10;stroke-width:6px"/><path d="M835.13,336.9h34.25a0,0,0,0,1,0,0V339a5.48,5.48,0,0,1-5.48,5.48h-23.3a5.48,5.48,0,0,1-5.48-5.48V336.9A0,0,0,0,1,835.13,336.9Z" style="fill:#1a434d"/><path d="M45.08,463.76h62.28a4.07,4.07,0,0,0,4-3.76L118,371.12a4,4,0,0,0-4-4.36H37.08a4,4,0,0,0-4,4.42l8,88.89A4,4,0,0,0,45.08,463.76Z" style="fill:#a2c4d1;stroke:#1a434d;stroke-miterlimit:10;stroke-width:6px"/><path d="M113.63,433.84s34.75,8.62,40.22-25.65c4.94-31-35.86-27.45-35.86-27.45l-1,10.14s28.38-2.12,25,17.52c-3.71,21.72-27.9,16.34-27.9,16.34Z" style="fill:#a2c4d1;stroke:#1a434d;stroke-miterlimit:10;stroke-width:6px"/><path d="M65.7,351.05s-14-2.79-10.47-13.95,9.08-7,9.78-15.36-9.78-13.26-4.89-23" style="fill:none;stroke:#1a434d;stroke-linecap:round;stroke-miterlimit:10;stroke-width:6px"/><path d="M88.73,351.05s-14.86-5.62-8.37-15.35c2.79-4.19,7-2.79,9.07-7.68,3.31-7.72-10.47-10.47-5.58-20.24" style="fill:none;stroke:#1a434d;stroke-linecap:round;stroke-miterlimit:10;stroke-width:6px"/><path d="M1201.52,329.92c0,9.05.25,16-.07,22.89-.27,5.95,2,8.37,8,8.27s8.47-2.5,8.2-8.41a90.54,90.54,0,0,1,.14-13.88c.33-3,1.86-5.89,3.13-9.62,4.89,3.95,7.6,4.9,11.25,7.84,5.37-1.07,6.83-5.41,10-9.46,3.86,1.7,8.35,3,12.07,5.45,7.73,5.09,10.44,1.3,12-5.82.56-2.65,1.43-5.23,1.89-6.88,6.28,0,11.66.47,16.94-.1,8.34-.91,11.43-5.37,7.68-12.6-4.08-7.87-2.65-13,3.91-18.38,6-5,2.73-13.08-1.62-14.67-11.33-4.13-12.67-11.57-18.87-17.53-1.21-1.16-1.43-3.66-1.51-5.56,0-1,3.42-7.63,4.28-8.46,8-7.68-12.76-6.41-8-20,3-8.47,0-15.91-8.53-21.4-4.75-3.06-6.34-5.94-3.77-11.37,1-2-.44-5-.65-7.61-.24-3-3.5-6-3.79-9-.21-2.24,0-4.89-1.17-6.6-3.77-5.73-11.14-16.94-15.5-22.23-7.83-9.51-8.46-12-16.33-21.48-4.08-4.91-9.59-11.22-14.25-17.37-10,8.09-15.54,20.22-23.48,31.06-.91,1.23,1.27,4.51.27,5.67-7.08,8.23-6.82,12.14-13.88,20.38-.59.69-8.76,5.85-8.76,6.63,0,7.62-1.69,11.54-2,19.14-.1,2.66.8,9.32-.75,11.51-2.59,3.65-11.11,6.8-14.28,10-5.65,5.64-4.64,14.53,3.77,21.43.74.6,1.23,2.67.77,3.39-4.6,7.28-6.44,11.15-.07,18.51.26.29-9.73,6-10.92,7.15-6.55,6.38-5.73,8.93-11.46,16-3.72,4.56-4.51,10.21,2,15.22,2.57,2,2.53,8,2.79,12.17.27,4.47-2,12.21-.55,12.93,5.14,2.49,11.45,2.67,17.36,3.39,1.27.15,2.71-1.09,5.35-2.24,1.25,3.78,3,6.95,3.42,10.4.4,3,4,8.91,10.48,5.06,4.4-2.64,9.26-4.51,13.91-6.71C1187.19,340.65,1187.19,340.65,1201.52,329.92Z" style="fill:#a2c4d1;stroke:#1a434d;stroke-miterlimit:10;stroke-width:6px"/><path d="M1118,362.31c0,12.06-.32,21.3.1,30.5.37,7.94-2.7,11.16-10.72,11-7.86-.13-11.3-3.32-10.94-11.2a119,119,0,0,0-.18-18.5c-.44-4-2.49-7.85-4.17-12.82-6.52,5.26-10.14,6.53-15,10.45-7.16-1.43-9.1-7.22-13.4-12.61-5.14,2.26-11.12,4-16.09,7.26-10.3,6.78-13.92,1.73-15.94-7.76-.75-3.53-1.9-7-2.52-9.16-8.36,0-15.55.62-22.58-.15-11.12-1.21-15.23-7.15-10.24-16.78,5.45-10.5,3.54-17.3-5.21-24.51-8.07-6.64-3.63-17.43,2.16-19.55,15.1-5.5,16.88-15.43,25.16-23.37,1.61-1.54,1.9-4.87,2-7.41.06-1.35-1.34-3-2.49-4.11-10.61-10.24,18-22.48,2.08-33.2-4.87-3.28,5.44-21.83,16.75-29.14,6.33-4.09,8.45-7.93,5-15.16-1.26-2.64.59-6.72.86-10.15.33-4,4.67-8,5.06-12,.29-3,.06-6.51,1.56-8.8,5-7.64,14.85-22.57,20.66-29.63,10.44-12.68,15.27-16,25.77-28.63,5.43-6.54,3.45-15,9.66-23.15,11.2,15.34,26,26.95,36.63,41.39,1.21,1.65-1.69,6-.36,7.57,9.44,11,9.09,16.18,18.5,27.16.78.92,11.68,7.8,11.68,8.84,0,10.16,2.25,15.38,2.63,25.52.14,3.54-1.06,12.42,1,15.34,3.45,4.86,14.8,9.07,19,13.29,7.53,7.52,6.18,19.37-5,28.57-1,.81-1.63,3.57-1,4.53,6.13,9.7,8.58,14.86.09,24.66-.35.4,13,8,14.56,9.53,8.73,8.51,7.64,11.91,15.28,21.29,5,6.09,6,13.62-2.7,20.29-3.42,2.62-3.37,10.61-3.72,16.22-.36,6,2.74,16.28.74,17.25-6.86,3.31-15.27,3.54-23.14,4.5-1.7.21-3.62-1.45-7.13-3-1.68,5-4,9.27-4.56,13.87-.54,4.05-5.39,11.88-14,6.74-5.86-3.51-12.34-6-18.53-9C1137.12,376.61,1137.12,376.61,1118,362.31Z" style="fill:#a2c4d1;stroke:#1a434d;stroke-miterlimit:10;stroke-width:6px"/><path d="M1326,273.41H1158.34c-3.79,0-12.87-.38-15.52,11.35s-9.83,65.46-9.83,79.08,2.27,31.41,2.27,31.41-4.17.76-4.17,4.54,1.52,25.35,1.9,27.62,1.13,4.92,6.43,4.92c3.59,0,35.95,3.41,38.22,3.78s1.15-26.83,31-28c29.14-1.13,30.27,25.73,31.79,28.76,0,0,15.89-.76,43.51-1.51,32-.88,70.31.59,83.62.38,23.84-.38,71.14,1.89,71.52,2.27s0-31.79,32.54-31.41c29.52.34,31,33.3,31,33.3s7.95,0,13.63-1.52,21.56-3.4,22.7-6.05,4.92-15.13,1.89-20.81-3.78-19.3-7.57-24.22-5.67-6.43-7.19-9.83-9.83-13.63-14.37-14.76-16.65-4.16-19.3-6.06-60.16-57.89-68.49-63.94-29.13-19.3-37.08-19.3Z" style="fill:#a2c4d1;stroke:#1a434d;stroke-miterlimit:10;stroke-width:6px"/><path d="M1390.66,311.25c0,5.67,3.41,35.57,10.6,41.24s26.86,10.22,38.21,10.22,32.17,1.89,34.44,0-5.3-14.76-9.46-18.16-27.25-28.76-41.62-33.3S1390.66,304.44,1390.66,311.25Z" style="fill:#a2c4d1;stroke:#1a434d;stroke-miterlimit:10;stroke-width:6px"/><rect x="1273.74" y="307.09" width="99.51" height="52.59" rx="4.11" style="fill:#a2c4d1;stroke:#1a434d;stroke-miterlimit:10;stroke-width:6px"/><circle cx="1209.45" cy="439.88" r="24.38" style="fill:#a2c4d1;stroke:#1a434d;stroke-miterlimit:10;stroke-width:6px"/><circle cx="1470.85" cy="438.78" r="24.38" style="fill:#a2c4d1;stroke:#1a434d;stroke-miterlimit:10;stroke-width:6px"/><path d="M1361.14,273.41s-12.64-23.2-44.28-25.73v4.64l40.07,21.09Z" style="fill:#a2c4d1;stroke:#1a434d;stroke-miterlimit:10;stroke-width:6px"/><polygon points="1322.98 273.41 1323.19 265.82 1342.58 265.82 1356.93 273.41 1322.98 273.41" style="fill:#a2c4d1;stroke:#1a434d;stroke-miterlimit:10;stroke-width:6px"/><path d="M583.84,447.27H273.2c-16.43,0-29.75-.44-29.75-.44V236.9c-.46-30.72-.46-30.74,29.75-31.18H583.84c30.21.44,30.21.46,29.75,31.18V446.83S600.27,447.27,583.84,447.27Z" style="fill:#a2c4d1;stroke:#1a434d;stroke-miterlimit:10;stroke-width:6px;fill-rule:evenodd"/><rect x="262.8" y="224.07" width="331.44" height="209.1" rx="7" style="fill:#282b33;stroke:#1a434d;stroke-miterlimit:10;stroke-width:6px"/><path d="M215.9,463.81c-10.42,0-19.09-7.19-20.63-16.55H661.78c-1.55,9.36-10.22,16.55-20.64,16.55Z" style="fill:#a2c4d1;fill-rule:evenodd"/><path d="M657.81,450.26a18,18,0,0,1-16.67,10.55H215.9a17.93,17.93,0,0,1-16.66-10.55H657.81m7.21-6H192c0,12.46,10.69,22.55,23.88,22.55H641.14c13.19,0,23.88-10.09,23.88-22.55Z" style="fill:#1a434d"/><rect x="288.46" y="252.33" width="4.12" height="9.21" style="fill:#aab1bf"/><rect x="288.46" y="264.61" width="4.12" height="9.21" style="fill:#aab1bf"/><rect x="288.46" y="276.89" width="4.12" height="9.21" style="fill:#aab1bf"/><rect x="288.46" y="289.18" width="4.12" height="9.21" style="fill:#aab1bf"/><rect x="288.46" y="301.46" width="4.12" height="9.21" style="fill:#aab1bf"/><rect x="288.46" y="313.74" width="4.12" height="9.21" style="fill:#aab1bf"/><rect x="288.46" y="326.02" width="4.12" height="9.21" style="fill:#aab1bf"/><rect x="288.46" y="338.31" width="4.12" height="9.21" style="fill:#aab1bf"/><rect x="288.46" y="350.59" width="4.12" height="9.21" style="fill:#aab1bf"/><rect x="288.46" y="362.87" width="4.12" height="9.21" style="fill:#aab1bf"/><rect x="288.46" y="375.15" width="4.12" height="9.21" style="fill:#aab1bf"/><rect x="288.46" y="387.44" width="4.12" height="9.21" style="fill:#aab1bf"/><rect x="288.46" y="399.72" width="4.12" height="9.21" style="fill:#aab1bf"/><rect x="300.4" y="253.48" width="31.23" height="6.43" rx="2.5" style="fill:#aab1bf"/><rect x="300.4" y="266.34" width="31.23" height="6.43" rx="2.5" style="fill:#c677dd"/><rect x="336.22" y="266.34" width="71.64" height="6.43" rx="2.5" style="fill:#d09965"/><rect x="300.4" y="303.08" width="58.78" height="6.43" rx="2.5" style="fill:#c677dd"/><rect x="300.4" y="376.55" width="58.78" height="6.43" rx="2.5" style="fill:#c677dd"/><rect x="300.4" y="315.02" width="165.32" height="6.43" rx="2.5" style="fill:#aab1bf"/><rect x="363.77" y="303.08" width="118.48" height="6.43" rx="2.5" style="fill:#97c379"/><rect x="300.4" y="326.96" width="90.93" height="6.43" rx="2.5" style="fill:#c677dd"/><rect x="300.4" y="388.49" width="128.58" height="6.43" rx="2.5" style="fill:#aab1bf"/><rect x="336.22" y="253.48" width="31.23" height="6.43" rx="2.5" style="fill:#d09965"/><rect x="300.4" y="339.81" width="58.78" height="6.43" rx="2.5" style="fill:#aab1bf"/><rect x="363.77" y="339.81" width="39.78" height="6.43" rx="2.5" style="fill:#97c379"/><rect x="409.4" y="339.81" width="63.66" height="6.43" rx="2.5" style="fill:#aab1bf"/><rect x="395" y="326.96" width="31.23" height="6.43" rx="2.5" style="fill:#60afef"/><rect x="300.4" y="401.35" width="78.07" height="6.43" rx="2.5" style="fill:#e06b74"/><rect x="363.77" y="376.55" width="154.3" height="6.43" rx="2.5" style="fill:#e06b74"/><rect x="372.95" y="253.48" width="46.84" height="6.43" rx="2.5" style="fill:#97c379"/><rect x="307.74" y="278.28" width="46.84" height="6.43" rx="2.5" style="fill:#c677dd"/><rect x="300.4" y="351.75" width="94.6" height="6.43" rx="2.5" style="fill:#c677dd"/><rect x="487.76" y="303.08" width="46.84" height="6.43" rx="2.5" style="fill:#d09965"/><rect x="359.18" y="278.28" width="101.95" height="6.43" rx="2.5" style="fill:#60afef"/><path d="M428.79,215.21c.13-3.29,1.91-5.1,4.41-5.13a4.29,4.29,0,0,1,4.44,4.6,4.65,4.65,0,0,1-4.69,5C430.13,219.77,429.14,217.33,428.79,215.21Z" style="fill:#1a434d;fill-rule:evenodd"/><path d="M700,463.55a39.87,39.87,0,0,1,7.84-23.79c7.29-9.84,19-13.21,32.16-13.21,13.65,0,25.71,3.84,32.93,14.28A39.81,39.81,0,0,1,780,463.55Z" style="fill:#a2c4d1;stroke:#1a434d;stroke-miterlimit:10;stroke-width:6px;fill-rule:evenodd"/><line x1="739.97" y1="423.55" x2="739.97" y2="433.55" style="fill:none;stroke:#1a434d;stroke-linecap:round;stroke-miterlimit:10;stroke-width:6px"/></svg>